<svg width="334" height="203" viewBox="0 0 334 203" fill="none" xmlns="http://www.w3.org/2000/svg">
<g filter="url(#filter0_d_2_168)">
<path d="M53.8459 159.739C52.9365 156.894 52.3718 154.006 52.1516 151.075C51.9592 148.091 52.0828 145.185 52.5226 142.356C52.9494 139.488 53.6711 136.771 54.6878 134.206C55.7322 131.588 57.0098 129.209 58.5205 127.068C60.0719 124.915 61.8556 123.068 63.8717 121.528C65.8748 119.947 68.0752 118.773 70.473 118.007C73.2773 117.11 75.6399 117.005 77.561 117.69C79.5227 118.362 80.8414 119.754 81.5169 121.868C81.7767 122.68 81.9211 123.553 81.9501 124.484C82.0197 125.402 81.9674 126.36 81.7931 127.356C81.6465 128.299 81.4122 129.247 81.09 130.201C80.7679 131.155 80.3523 132.027 79.8433 132.817C78.7346 132.992 77.6708 132.817 76.6518 132.292C75.6198 131.726 74.8333 130.947 74.2924 129.955C75.3381 128.322 76.066 126.746 76.4761 125.226C76.9138 123.653 76.9638 122.338 76.626 121.281C76.0544 119.493 74.651 118.956 72.4158 119.67C71.481 119.969 70.5706 120.484 69.6845 121.215C68.826 121.893 67.9992 122.739 67.204 123.755C66.4089 124.771 65.6795 125.922 65.0159 127.209C64.3929 128.484 63.8634 129.84 63.4273 131.278C60.3764 141.212 60.2085 150.426 62.9236 158.92C63.8849 161.927 65.1252 164.196 66.6446 165.726C68.1639 167.256 69.7477 167.937 71.396 167.768C73.0136 166.803 74.8713 164.978 76.969 162.292C79.0667 159.605 81.2329 156.293 83.4676 152.353C84.0039 152.63 84.3841 152.978 84.6083 153.399C83.9234 155.321 83.1783 157.194 82.3731 159.019C81.5679 160.844 80.7238 162.547 79.8407 164.128C78.9982 165.697 78.1102 167.123 77.1768 168.407C76.284 169.678 75.4075 170.719 74.5474 171.532C69.482 173.061 65.2005 172.84 61.7031 170.867C58.2058 168.894 55.5867 165.185 53.8459 159.739ZM99.2909 160.733C96.8964 161.23 94.7225 160.805 92.7691 159.458C90.8157 158.112 89.3973 156.057 88.5139 153.293C87.9943 151.668 87.699 149.903 87.6281 148C87.5572 146.096 87.7089 144.189 88.0834 142.277C88.4449 140.325 89.0014 138.423 89.7529 136.57C90.5045 134.717 91.4226 133.035 92.5073 131.524C94.2099 129.143 96.0366 127.641 97.9873 127.017C99.5087 127.292 101.25 128.326 103.211 130.118C103.415 130.053 103.598 129.994 103.76 129.943C103.91 129.85 104.086 129.771 104.289 129.706C106.443 129.018 108.131 130.584 109.352 134.404C110.17 136.964 110.523 139.539 110.41 142.128C110.325 144.664 109.829 147.107 108.923 149.457C108.057 151.794 106.796 153.944 105.139 155.907C103.51 157.817 101.56 159.425 99.2909 160.733ZM96.2617 140.537C95.8696 141.692 95.5441 142.916 95.2852 144.208C95.0264 145.5 94.8553 146.787 94.772 148.068C94.6757 149.308 94.6745 150.495 94.7684 151.63C94.8494 152.724 95.0197 153.677 95.2795 154.49C95.5913 155.466 96.0527 156.348 96.6636 157.138C97.2745 157.929 97.8027 158.32 98.2481 158.312C99.947 157.321 101.373 156.036 102.526 154.458C103.707 152.827 104.579 151.002 105.144 148.985C105.749 146.955 106.019 144.786 105.953 142.478C105.928 140.157 105.532 137.797 104.765 135.4C104.428 134.343 104.1 133.529 103.784 132.959C103.467 132.388 103.095 131.925 102.667 131.568C101.048 132.668 99.7154 134.035 98.6697 135.668C97.6647 137.289 96.862 138.911 96.2617 140.537ZM147.577 122.319C146.94 122.568 146.284 123.248 145.609 124.359C144.921 125.43 144.23 126.771 143.535 128.382C142.868 129.939 142.186 131.658 141.488 133.538C140.831 135.405 140.194 137.266 139.577 139.121C138.988 140.922 138.434 142.622 137.915 144.221C137.396 145.82 136.935 147.11 136.532 148.09C135.521 148.01 134.579 147.729 133.708 147.246C132.824 146.722 132.071 145.977 131.449 145.011C131.249 143.687 131.118 142.295 131.055 140.837C130.979 139.338 130.992 137.767 131.093 136.122C131.235 134.464 131.48 132.706 131.826 130.848C132.201 128.937 132.732 126.885 133.42 124.695C132.824 124.93 132.134 125.643 131.35 126.835C130.553 127.985 129.759 129.426 128.969 131.157C128.165 132.847 127.379 134.733 126.612 136.815C125.831 138.856 125.125 140.852 124.493 142.8C123.665 145.394 122.996 147.646 122.487 149.556C122.018 151.453 121.606 152.615 121.25 153.042C119.946 152.608 118.948 152.008 118.256 151.244C117.564 150.48 116.941 149.582 116.387 148.549C116.116 147.561 115.868 146.296 115.644 144.755C115.461 143.201 115.367 141.574 115.361 139.874C115.347 136.608 115.604 133.279 116.132 129.885C116.7 126.478 117.286 123.335 117.888 120.454C119.104 120.335 120.243 120.396 121.306 120.638C122.41 120.868 123.632 121.328 124.973 122.02C124.969 123.409 124.768 124.952 124.369 126.647C123.957 128.302 123.531 130.051 123.09 131.894C122.649 133.737 122.302 135.595 122.05 137.467C121.797 139.34 121.815 141.148 122.104 142.892C122.722 140.903 123.466 138.605 124.335 135.998C125.244 133.378 126.213 130.873 127.241 128.484C128.31 126.082 129.449 123.971 130.659 122.151C131.869 120.33 133.124 119.213 134.424 118.797C134.912 118.641 135.466 118.553 136.087 118.534C136.708 118.515 137.302 118.549 137.867 118.637C138.433 118.725 138.917 118.839 139.32 118.979C139.71 119.078 139.945 119.182 140.025 119.291C140.081 120.169 139.951 121.442 139.634 123.112C139.344 124.727 139.019 126.444 138.659 128.261C138.299 130.078 137.987 131.835 137.724 133.532C137.447 135.188 137.384 136.463 137.535 137.355C138.656 133.996 139.739 130.939 140.785 128.186C141.818 125.392 142.854 122.956 143.891 120.877C144.929 118.799 145.962 117.125 146.989 115.855C148.058 114.573 149.181 113.744 150.36 113.367C151.173 113.107 151.996 113.09 152.83 113.317C153.691 113.489 154.394 113.936 154.938 114.658C154.962 115.995 154.82 117.652 154.513 119.632C154.245 121.599 153.99 123.674 153.747 125.857C153.492 127.999 153.31 130.095 153.204 132.145C153.138 134.181 153.339 135.931 153.807 137.394C154.08 138.248 154.384 138.778 154.719 138.984C155.04 139.15 155.425 139.162 155.872 139.019C156.36 138.863 156.781 138.639 157.135 138.346C157.517 138 157.81 137.795 158.013 137.73C158.309 137.814 158.516 137.972 158.635 138.203C158.753 138.434 158.845 138.651 158.91 138.854C158.305 139.764 157.641 140.559 156.917 141.238C156.207 141.958 155.323 142.487 154.266 142.824C153.291 143.136 152.426 143.233 151.672 143.116C150.958 142.986 150.307 142.701 149.719 142.262C149.131 141.823 148.639 141.264 148.242 140.584C147.846 139.905 147.511 139.138 147.238 138.285C146.797 136.903 146.544 135.483 146.481 134.025C146.406 132.526 146.417 131.089 146.514 129.714C146.64 128.285 146.819 126.952 147.05 125.713C147.268 124.434 147.444 123.303 147.577 122.319ZM166.938 158.998C166.317 159.017 165.797 158.512 165.378 157.481C165.046 157.005 164.723 156.414 164.408 155.708C164.134 154.99 163.847 154.163 163.548 153.228C163.275 152.375 163.041 151.151 162.845 149.556C162.662 148.002 162.515 146.212 162.405 144.187C162.336 142.149 162.323 139.936 162.366 137.548C162.396 135.119 162.501 132.645 162.68 130.123C162.881 126.969 163.063 124.245 163.226 121.953C163.377 119.621 163.476 117.618 163.523 115.946C163.612 114.26 163.663 112.878 163.676 111.798C163.73 110.706 163.748 109.782 163.73 109.026C163.737 108.486 163.793 107.819 163.897 107.024C164.001 106.229 164.146 105.422 164.332 104.601C164.545 103.726 164.778 102.913 165.03 102.16C165.269 101.367 165.519 100.75 165.781 100.308C167.269 100.056 168.727 99.9932 170.155 100.119C171.584 100.244 172.519 100.506 172.959 100.902C172.559 101.613 172.175 102.654 171.807 104.025C171.427 105.357 171.105 106.803 170.843 108.365C170.568 109.886 170.366 111.429 170.239 112.993C170.112 114.556 170.075 115.912 170.128 117.059C170.314 116.239 170.602 115.318 170.992 114.297C171.383 113.277 172.021 111.841 172.908 109.99C173.918 107.965 174.943 106.338 175.984 105.109C177.052 103.827 178.074 103.03 179.049 102.718C180.594 102.225 181.99 102.249 183.238 102.79C184.527 103.319 185.386 104.254 185.814 105.595C186.75 108.521 187.191 111.583 187.138 114.78C187.072 117.937 186.495 120.966 185.406 123.867C185.001 124.982 184.461 126.095 183.786 127.207C183.111 128.318 182.37 129.362 181.562 130.337C180.74 131.271 179.901 132.077 179.042 132.755C178.184 133.432 177.368 133.894 176.596 134.141C175.865 134.375 175.169 134.441 174.509 134.338C173.877 134.182 173.388 133.913 173.041 133.53C174.328 132.089 175.456 130.295 176.427 128.148C177.398 126.001 178.17 123.649 178.741 121.093C179.34 118.482 179.704 115.768 179.834 112.949C180.003 110.118 179.917 107.324 179.573 104.567C178.288 105.873 177.172 107.215 176.224 108.594C175.303 109.918 174.48 111.547 173.755 113.481C172.863 115.737 172.166 117.55 171.664 118.92C171.161 120.29 170.749 121.453 170.426 122.407C170.145 123.348 169.932 124.222 169.787 125.03C169.669 125.784 169.563 126.714 169.469 127.819C169.316 129.301 169.197 131.243 169.113 133.644C169.057 135.991 169.045 138.615 169.077 141.517C169.149 144.405 169.253 147.463 169.388 150.689C169.578 153.944 169.781 157.171 169.997 160.372C169.524 160.433 169.034 160.232 168.527 159.767C168.085 159.505 167.757 159.319 167.542 159.208C167.369 159.084 167.167 159.014 166.938 158.998ZM211.452 121.051C210.472 120.647 209.684 120.003 209.088 119.119C208.532 118.222 208.144 117.427 207.923 116.737C207.65 115.883 207.518 115.119 207.527 114.444C207.364 114.496 207.102 114.938 206.741 115.771C206.38 116.603 205.997 117.576 205.592 118.691C205.227 119.793 204.856 120.875 204.479 121.936C204.101 122.997 203.815 123.783 203.62 124.294C203.273 125.031 202.908 125.641 202.525 126.122C202.181 126.59 201.874 126.89 201.603 127.021C200.939 127.189 200.203 127.267 199.394 127.257C198.638 127.275 197.87 127.184 197.09 126.986C196.35 126.774 195.645 126.462 194.976 126.049C194.347 125.623 193.834 125.07 193.438 124.39C193.074 123.252 192.796 122.311 192.603 121.567C192.45 120.809 192.339 119.971 192.269 119.053C192.141 117.391 192.111 115.475 192.178 113.303C192.286 111.119 192.509 108.942 192.846 106.774C193.17 104.565 193.642 102.466 194.26 100.477C194.906 98.4337 195.73 96.7369 196.731 95.3865C197.097 95.2696 197.537 95.1738 198.051 95.0992C198.551 94.9839 199.071 94.9296 199.611 94.9363C200.191 94.93 200.744 94.9773 201.269 95.0783C201.822 95.1256 202.319 95.2801 202.761 95.542C202.525 96.0653 202.026 97.7256 201.262 100.523C200.54 103.307 199.959 107.166 199.52 112.099C199.46 112.611 199.424 113.339 199.412 114.283C199.401 115.228 199.402 116.213 199.416 117.239C199.431 118.264 199.479 119.257 199.562 120.216C199.685 121.162 199.831 121.899 200 122.427C200.104 122.752 200.222 122.983 200.356 123.12C200.529 123.243 200.67 123.333 200.777 123.388C201.309 122.949 201.867 122.032 202.451 120.636C203.035 119.24 203.796 117.138 204.735 114.329C204.959 113.63 205.219 112.83 205.513 111.93C205.849 111.017 206.171 110.063 206.48 109.068C206.776 108.033 207.025 106.99 207.227 105.94C207.469 104.877 207.61 103.846 207.65 102.848C207.656 102.309 207.678 101.675 207.714 100.947C207.777 100.165 207.875 99.3497 208.007 98.5012C208.18 97.6398 208.393 96.7653 208.647 95.8779C208.928 94.9368 209.311 94.0308 209.794 93.1597C210.322 92.9908 210.91 92.8699 211.559 92.7969C212.208 92.724 212.828 92.7047 213.422 92.739C214.043 92.7197 214.595 92.767 215.08 92.8809C215.551 92.9542 215.927 93.0803 216.208 93.2592C216.049 95.2812 215.801 97.3089 215.465 99.3423C215.13 101.376 214.849 103.369 214.622 105.323C214.383 107.236 214.265 109.11 214.269 110.945C214.274 112.781 214.529 114.491 215.036 116.076C215.309 116.929 215.61 117.661 215.94 118.273C216.297 118.83 216.629 119.307 216.934 119.702C217.226 120.056 217.479 120.356 217.692 120.602C217.945 120.834 218.105 121.052 218.17 121.255C218.183 121.296 218.161 121.37 218.106 121.477C218.079 121.531 218.044 121.564 218.004 121.577C217.719 121.668 217.334 121.724 216.848 121.745C216.362 121.766 215.795 121.745 215.149 121.683C214.555 121.649 213.929 121.581 213.269 121.478C212.65 121.362 212.044 121.22 211.452 121.051ZM221.318 93.6415C221.037 93.4626 220.692 93.0131 220.283 92.2928C219.86 91.532 219.558 90.8671 219.376 90.2981C220.459 90.0416 221.501 89.7981 222.502 89.5676C223.491 89.2965 224.398 89.0513 225.224 88.8322C225.443 87.4181 225.71 86.0113 226.025 84.6119C226.366 83.1588 226.707 81.8407 227.045 80.6574C227.411 79.4206 227.768 78.3657 228.116 77.493C228.505 76.6072 228.83 76.0108 229.09 75.7036C229.496 75.5737 230.03 75.4926 230.692 75.4603C231.381 75.3744 232.09 75.3494 232.818 75.3854C233.533 75.3808 234.194 75.4159 234.8 75.4909C235.406 75.5658 235.85 75.6928 236.131 75.8717C235.406 77.8057 234.81 79.5863 234.345 81.2132C233.907 82.7865 233.453 84.589 232.983 86.6207C233.795 86.3609 234.602 86.0808 235.402 85.7803C236.242 85.4669 237.076 85.1331 237.904 84.779C238.172 84.9172 238.419 85.1294 238.645 85.4156C238.857 85.6611 239.016 85.9464 239.12 86.2716C237.362 87.6397 235.074 88.819 232.255 89.8097C231.863 92.0852 231.572 94.3283 231.382 96.5388C231.221 98.6958 231.141 100.759 231.144 102.729C231.187 104.686 231.3 106.509 231.481 108.198C231.703 109.874 232.016 111.342 232.418 112.602C232.99 114.39 233.979 115.172 235.385 114.946C236.552 114.394 237.613 113.719 238.568 112.921C239.522 112.123 240.315 111.242 240.948 110.279C241.309 110.567 241.549 110.826 241.667 111.057C241.54 111.5 241.25 112.064 240.796 112.746C240.383 113.416 239.902 114.084 239.355 114.752C238.819 115.461 238.279 116.082 237.733 116.615C237.186 117.148 236.757 117.486 236.445 117.631C235.416 117.915 234.328 118.016 233.182 117.935C232.036 117.853 230.939 117.644 229.891 117.307C228.883 116.957 227.998 116.501 227.236 115.938C226.461 115.335 225.957 114.668 225.723 113.936C225.411 112.961 225.143 111.702 224.919 110.161C224.723 108.567 224.59 106.818 224.519 104.914C224.448 103.011 224.432 101 224.472 98.8822C224.512 96.7642 224.619 94.6471 224.793 92.5308L221.318 93.6415ZM260.374 79.0746C261.016 81.6463 261.264 83.9635 261.117 86.0262C260.957 88.0482 260.407 89.971 259.467 91.7944C258.555 93.5643 257.299 95.3097 255.699 97.0305C254.099 98.7514 252.161 100.536 249.884 102.383C249.962 102.627 250.026 102.897 250.077 103.195C250.155 103.439 250.239 103.703 250.33 103.987C250.499 104.516 250.715 105.051 250.978 105.594C251.241 106.137 251.552 106.62 251.911 107.043C252.271 107.466 252.685 107.781 253.155 107.989C253.611 108.157 254.124 108.15 254.693 107.968C255.79 107.617 256.789 107.029 257.69 106.204C258.591 105.378 259.398 104.471 260.112 103.481C260.854 102.438 261.501 101.38 262.054 100.307C262.635 99.1808 263.14 98.1683 263.569 97.2695C264.092 97.5054 264.548 97.7404 264.937 97.9746C263.887 100.998 262.525 103.673 260.85 106C259.203 108.273 257.475 109.945 255.667 111.016C252.759 111.587 250.24 111.273 248.109 110.073C246.006 108.819 244.565 106.972 243.786 104.534C243.253 102.868 242.937 101.11 242.839 99.2598C242.768 97.3564 242.886 95.4823 243.192 93.6375C243.526 91.739 244.014 89.9032 244.656 88.13C245.34 86.3438 246.142 84.7211 247.064 83.2617C248.027 81.7893 249.082 80.534 250.228 79.4956C251.415 78.4443 252.679 77.7043 254.02 77.2756C255.968 76.9219 258.085 77.5216 260.374 79.0746ZM256.81 82.4309C255.765 82.9442 254.77 83.755 253.825 84.8633C252.88 85.9716 252.075 87.3042 251.408 88.8612C250.781 90.4052 250.301 92.1264 249.967 94.0248C249.634 95.9233 249.522 97.8852 249.632 99.9106C252.363 97.2457 254.429 94.3904 255.83 91.3447C257.217 88.2583 257.544 85.2871 256.81 82.4309ZM269.41 102.659C269.237 101.415 269.089 99.7606 268.966 97.6946C268.871 95.5749 268.824 93.3277 268.827 90.9529C268.816 88.5374 268.846 86.109 268.917 83.6675C268.987 81.2261 269.109 79.0147 269.282 77.0333C269.408 75.6046 269.563 74.4798 269.749 73.659C269.921 72.7975 270.174 72.045 270.505 71.4014C271.1 71.3008 271.735 71.2547 272.41 71.2631C273.084 71.2714 273.751 71.3269 274.411 71.4295C275.071 71.5321 275.677 71.6745 276.228 71.8568C276.766 71.9983 277.202 72.1724 277.537 72.3789C276.855 74.0302 276.354 75.8254 276.033 77.7645C275.753 79.6906 275.602 82.0905 275.58 84.9643C277.151 82.3121 278.484 79.8255 279.578 77.5047C280.714 75.1709 281.662 72.6728 282.424 70.0106C282.603 69.7294 282.997 69.4914 283.606 69.2965C284.175 69.1147 284.757 69.0409 285.35 69.0752C285.93 69.0689 286.374 69.1958 286.681 69.456C286.573 71.6406 286.824 73.688 287.435 75.5981C288.006 77.3863 288.699 78.643 289.513 79.3682C289.551 79.625 289.416 80.1833 289.108 81.0431C288.841 81.8899 288.501 82.7155 288.086 83.52C286.807 83.3018 285.584 82.8414 284.419 82.1388C283.241 81.3956 282.26 80.4997 281.477 79.451C279.996 81.4027 278.792 83.2432 277.867 84.9724C276.928 86.661 276.225 88.4536 275.756 90.3504C275.315 92.1935 275.074 94.2416 275.032 96.4944C275.032 98.7343 275.175 101.354 275.461 104.353C275.083 104.429 274.59 104.43 273.984 104.355C273.431 104.308 272.839 104.206 272.207 104.05C271.615 103.88 271.057 103.678 270.534 103.442C270.011 103.206 269.636 102.945 269.41 102.659ZM308.174 64.8703C308.38 65.6555 308.497 66.5137 308.526 67.4451C308.583 68.3229 308.559 69.1592 308.455 69.954C308.338 70.7082 308.168 71.3673 307.945 71.9313C307.722 72.4952 307.448 72.8292 307.123 72.9331C306.663 73.0354 306.301 72.815 306.038 72.272C305.999 72.1501 305.981 71.9542 305.984 71.6844C306.015 71.3609 306.04 71.0171 306.058 70.653C306.076 70.2889 306.074 69.9313 306.051 69.5802C306.069 69.2161 306.039 68.9122 305.961 68.6683C305.779 68.0993 305.488 67.6774 305.086 67.4026C304.712 67.0741 304.302 66.9814 303.855 67.1243C302.229 67.6439 301.315 69.0561 301.111 71.361C300.907 73.6658 301.435 76.7894 302.695 80.7315C302.825 81.1379 302.923 81.3753 302.99 81.4436C303.83 81.1301 304.576 80.8695 305.226 80.6616C305.904 80.4001 306.568 80.1655 307.218 79.9576C307.285 80.0259 307.357 80.182 307.435 80.4258C307.552 80.7916 307.555 81.0817 307.444 81.2963C306.575 81.7982 305.881 82.2215 305.364 82.5659C304.875 82.8567 304.507 83.1085 304.262 83.3214C304.016 83.5343 303.879 83.735 303.85 83.9235C303.848 84.0584 303.886 84.2478 303.964 84.4916C304.068 84.8168 304.172 85.1419 304.276 85.467C304.42 85.7792 304.571 86.1791 304.726 86.6668C305.818 90.0806 305.76 93.1226 304.553 95.7929C303.387 98.4502 301.209 100.468 298.021 101.845C297.44 101.986 296.798 102.012 296.098 101.922C295.397 101.833 294.691 101.655 293.979 101.39C293.308 101.112 292.678 100.753 292.09 100.314C291.515 99.9159 291.055 99.4581 290.71 98.9411C290.217 97.3968 290.074 95.8298 290.283 94.2401C290.478 92.6098 290.956 91.091 291.715 89.6836C292.502 88.2225 293.544 86.9265 294.84 85.7956C296.163 84.6111 297.7 83.672 299.449 82.9785C299.124 81.9625 298.704 80.9993 298.189 80.0888C297.674 79.1784 297.152 78.3151 296.622 77.499C296.12 76.6292 295.631 75.8 295.155 75.0115C294.666 74.1824 294.285 73.3411 294.013 72.4876C293.662 71.3903 293.541 70.2419 293.65 69.0423C293.747 67.8021 294.018 66.6181 294.463 65.4901C294.896 64.3216 295.496 63.2562 296.264 62.2942C297.031 61.3322 297.905 60.5604 298.883 59.9787C299.369 59.9578 300.075 60.1352 301.002 60.5109C301.956 60.8331 302.916 61.243 303.881 61.7407C304.846 62.2384 305.737 62.7824 306.553 63.3727C307.356 63.9224 307.896 64.4216 308.174 64.8703ZM296.942 99.0991C297.788 98.381 298.514 97.4994 299.12 96.4544C299.768 95.3964 300.261 94.2758 300.599 93.0926C300.937 91.9093 301.114 90.7106 301.129 89.4964C301.185 88.2692 301.044 87.1272 300.706 86.0706C299.932 86.4523 299.162 87.1242 298.394 88.0862C297.614 89.0076 296.939 90.0518 296.372 91.2187C295.791 92.345 295.366 93.4664 295.096 94.583C294.825 95.6996 294.801 96.6034 295.022 97.2943C295.307 98.1884 295.948 98.79 296.942 99.0991Z" fill="#250095"/>
</g>
<g filter="url(#filter1_d_2_168)">
<path d="M25.8459 109.739C24.9365 106.894 24.3718 104.006 24.1516 101.075C23.9592 98.0909 24.0828 95.1846 24.5226 92.3564C24.9494 89.4876 25.6711 86.7708 26.6878 84.2062C27.7322 81.5879 29.0098 79.2086 30.5205 77.0683C32.0719 74.9151 33.8556 73.0683 35.8717 71.528C37.8748 69.947 40.0752 68.7733 42.473 68.0069C45.2773 67.1105 47.6399 67.0048 49.561 67.6897C51.5227 68.3616 52.8414 69.7543 53.5169 71.8676C53.7767 72.6804 53.9211 73.5525 53.9501 74.4839C54.0197 75.4023 53.9674 76.3597 53.7931 77.3561C53.6465 78.2988 53.4122 79.2472 53.09 80.2013C52.7679 81.1553 52.3523 82.0272 51.8433 82.8171C50.7346 82.9923 49.6708 82.8172 48.6518 82.2918C47.6198 81.7258 46.8333 80.947 46.2924 79.9553C47.3381 78.322 48.066 76.7455 48.4761 75.2259C48.9138 73.6525 48.9638 72.3375 48.626 71.2809C48.0544 69.4927 46.651 68.9558 44.4158 69.6703C43.481 69.9691 42.5706 70.4841 41.6845 71.2153C40.826 71.8928 39.9992 72.7394 39.204 73.7551C38.4089 74.7708 37.6795 75.9222 37.0159 77.2094C36.3929 78.4835 35.8634 79.8398 35.4273 81.2782C32.3764 91.2121 32.2085 100.426 34.9236 108.92C35.8849 111.927 37.1252 114.196 38.6446 115.726C40.1639 117.256 41.7477 117.937 43.396 117.768C45.0136 116.803 46.8713 114.978 48.969 112.292C51.0667 109.605 53.2329 106.293 55.4676 102.353C56.0039 102.63 56.3841 102.978 56.6083 103.399C55.9234 105.321 55.1783 107.194 54.3731 109.019C53.5679 110.844 52.7238 112.547 51.8407 114.128C50.9982 115.697 50.1102 117.123 49.1768 118.407C48.284 119.678 47.4075 120.719 46.5474 121.532C41.482 123.061 37.2005 122.84 33.7031 120.867C30.2058 118.894 27.5867 115.185 25.8459 109.739ZM76.8722 79.4526C77.2786 79.3227 77.772 79.2546 78.3523 79.2483C78.9602 79.1883 79.5267 79.2088 80.0517 79.3098C80.5637 79.3701 81.0009 79.4767 81.3634 79.6296C81.7664 79.7695 82.0004 79.9411 82.0654 80.1443C81.7982 82.111 81.5985 84.0786 81.4662 86.047C81.3209 87.9748 81.2577 89.8091 81.2767 91.55C81.2956 93.2909 81.3837 94.8977 81.5409 96.3704C81.7388 97.8301 82.0001 99.068 82.3248 100.084C82.6886 101.222 83.1158 102.138 83.6065 102.832C84.0842 103.486 84.6594 103.884 85.3323 104.028C84.9486 104.509 84.4031 104.974 83.6959 105.424C82.9886 105.874 82.3302 106.197 81.7206 106.391C79.526 107.093 77.948 105.94 76.9867 102.933C76.2462 100.616 76.0051 97.1993 76.2634 92.6822C76.0481 94.8115 75.6785 96.8781 75.1545 98.8822C74.6174 100.846 74.0016 102.633 73.307 104.243C72.6125 105.854 71.8261 107.247 70.948 108.424C70.0975 109.547 69.2309 110.339 68.3481 110.8C66.8184 111.2 65.3718 110.878 64.0084 109.836C62.632 108.753 61.606 107.155 60.9305 105.041C60.203 102.766 59.9242 100.212 60.0941 97.3803C60.2641 94.5488 60.7567 91.8157 61.5719 89.1811C62.4277 86.5335 63.5224 84.2127 64.8559 82.2186C66.1764 80.184 67.6568 78.8597 69.2971 78.2458C69.7425 78.2378 70.2675 78.3387 70.8721 78.5486C71.5174 78.7455 72.1414 79.0163 72.7444 79.3611C73.388 79.6929 73.9568 80.071 74.4508 80.4954C74.9318 80.8792 75.2511 81.2475 75.4086 81.6002C73.8609 82.3637 72.4277 83.6953 71.1088 85.5951C69.8306 87.4819 68.7856 89.6076 67.9737 91.9724C67.1895 94.2836 66.6946 96.6591 66.489 99.0989C66.2834 101.539 66.4794 103.693 67.077 105.563C67.3238 106.335 67.7642 106.732 68.3981 106.753C69.4988 106.132 70.542 104.702 71.5277 102.46C72.5005 100.178 73.4931 96.8376 74.5055 92.4378C74.6781 91.5763 74.8653 90.6206 75.0672 89.5706C75.3097 88.5076 75.5393 87.404 75.7558 86.2598C75.9724 85.1155 76.1686 83.9777 76.3445 82.8465C76.5481 81.6616 76.724 80.5303 76.8722 79.4526ZM92.7731 68.9275C93.9337 68.9149 95.1632 69.3281 96.4617 70.1673C97.7472 70.9658 98.8278 71.9642 99.7036 73.1624C99.6073 74.4026 99.3386 75.9443 98.8975 77.7875C98.4564 79.6306 98.0283 81.5144 97.6132 83.4388C97.1851 85.3226 96.8188 87.1194 96.5143 88.8293C96.2374 90.4856 96.1874 91.8006 96.3643 92.7743C96.7937 91.8756 97.2516 90.8557 97.738 89.7148C98.252 88.5202 98.7319 87.359 99.1776 86.2311C99.651 85.0495 100.096 83.989 100.512 83.0496C100.916 82.0696 101.242 81.3382 101.491 80.8555C102.003 79.7959 102.619 78.5689 103.338 77.1744C104.044 75.7394 104.816 74.3726 105.655 73.0741C106.522 71.722 107.441 70.5324 108.412 69.5055C109.369 68.4378 110.336 67.7481 111.311 67.4363C112.368 67.0986 113.359 67.185 114.283 67.6957C115.236 68.1528 116.039 68.7024 116.692 69.3447C116.718 69.426 116.594 69.5999 116.321 69.8664C116.075 70.0792 115.772 70.6017 115.411 71.4339C115.076 72.3473 114.75 73.5711 114.435 75.1055C114.146 76.5862 113.897 78.1888 113.687 79.9134C113.504 81.5843 113.436 83.2634 113.483 84.9507C113.53 86.6379 113.754 88.1115 114.157 89.3713C114.482 90.3874 114.812 90.9986 115.146 91.2052C115.522 91.3987 115.953 91.4176 116.441 91.2617C116.888 91.1188 117.323 90.8678 117.746 90.5087C118.168 90.1496 118.522 89.9246 118.806 89.8336C118.995 89.8629 119.175 90.0069 119.348 90.2654C119.548 90.4702 119.68 90.6743 119.745 90.8775C119.511 91.2659 119.216 91.6738 118.859 92.1012C118.503 92.5286 118.12 92.9421 117.711 93.3419C117.301 93.7416 116.878 94.1007 116.442 94.4191C116.047 94.7246 115.667 94.9358 115.301 95.0527C114.123 95.4295 113.089 95.5584 112.2 95.4394C111.364 95.3481 110.632 95.0894 110.003 94.6634C109.415 94.2243 108.916 93.6447 108.507 92.9245C108.084 92.1636 107.73 91.3361 107.444 90.442C107.288 89.9543 107.154 89.3927 107.04 88.7571C106.926 88.1215 106.862 87.3583 106.846 86.4676C106.817 85.5362 106.844 84.43 106.927 83.1492C106.998 81.8277 107.118 80.2437 107.29 78.3972C107.208 78.4232 106.751 78.8831 105.916 79.7768C105.082 80.6706 104.264 81.8951 103.462 83.4504C102.137 85.8898 100.988 88.2505 100.015 90.5323C99.0829 92.8012 98.1751 95.2862 97.2916 97.9875C96.8002 99.5332 96.3455 100.843 95.9274 101.917C95.563 103.019 95.1824 103.791 94.7856 104.231C93.7763 104.016 92.9255 103.527 92.2333 102.762C91.5541 102.039 90.9634 101.242 90.4614 100.372C90.2146 99.6002 90.0044 98.5923 89.8309 97.3488C89.698 96.0922 89.5871 94.6943 89.4982 93.1549C89.4369 91.562 89.4375 89.882 89.4998 88.1152C89.5621 86.3483 89.6854 84.5619 89.8697 82.7561C90.2708 78.6861 90.7766 75.4336 91.3869 72.9989C92.0378 70.5511 92.4999 69.194 92.7731 68.9275ZM138.429 59.776C138.835 59.6461 139.329 59.578 139.909 59.5717C140.517 59.5117 141.083 59.5322 141.608 59.6332C142.12 59.6935 142.558 59.8001 142.92 59.953C143.323 60.0929 143.557 60.2645 143.622 60.4677C143.355 62.4344 143.155 64.402 143.023 66.3704C142.878 68.2981 142.814 70.1325 142.833 71.8733C142.852 73.6142 142.94 75.221 143.098 76.6938C143.295 78.1535 143.557 79.3914 143.881 80.4074C144.245 81.5453 144.672 82.4614 145.163 83.1557C145.641 83.8092 146.216 84.2077 146.889 84.3509C146.505 84.8319 145.96 85.2975 145.253 85.7475C144.545 86.1975 143.887 86.52 143.277 86.7148C141.083 87.4163 139.505 86.2634 138.543 83.256C137.803 80.9394 137.562 77.5226 137.82 73.0055C137.605 75.1348 137.235 77.2015 136.711 79.2055C136.174 81.1689 135.558 82.9559 134.864 84.5666C134.169 86.1772 133.383 87.5708 132.505 88.7473C131.654 89.8703 130.788 90.6624 129.905 91.1238C128.375 91.5231 126.928 91.2017 125.565 90.1593C124.189 89.0763 123.163 87.4781 122.487 85.3648C121.76 83.0889 121.481 80.5352 121.651 77.7037C121.821 74.8722 122.313 72.1391 123.128 69.5045C123.984 66.8569 125.079 64.536 126.413 62.542C127.733 60.5073 129.213 59.183 130.854 58.5691C131.299 58.5611 131.824 58.6621 132.429 58.872C133.074 59.0689 133.698 59.3397 134.301 59.6845C134.945 60.0163 135.513 60.3944 136.007 60.8188C136.488 61.2026 136.808 61.5708 136.965 61.9236C135.418 62.6871 133.984 64.0187 132.665 65.9185C131.387 67.8052 130.342 69.931 129.53 72.2958C128.746 74.607 128.251 76.9825 128.046 79.4222C127.84 81.862 128.036 84.0166 128.634 85.8861C128.88 86.6583 129.321 87.055 129.955 87.0764C131.055 86.4558 132.099 85.0249 133.084 82.7837C134.057 80.5018 135.05 77.161 136.062 72.7611C136.235 71.8997 136.422 70.944 136.624 69.894C136.866 68.831 137.096 67.7274 137.312 66.5831C137.529 65.4389 137.725 64.3011 137.901 63.1698C138.105 61.9849 138.281 60.8536 138.429 59.776ZM157.856 49.3331C158.669 49.0733 159.682 49.0183 160.894 49.1682C162.107 49.3182 163.243 49.6493 164.303 50.1617C163.58 48.601 162.828 47.1614 162.049 45.8429C161.296 44.4708 160.369 43.1099 159.265 41.7605C158.203 40.398 156.891 38.9582 155.332 37.4411C153.772 35.9241 151.883 34.2208 149.667 32.3313C149.672 31.9266 149.8 31.4154 150.05 30.7978C150.341 30.1672 150.686 29.5643 151.084 28.989C151.51 28.3601 151.956 27.7921 152.421 27.2851C152.927 26.7651 153.431 26.38 153.933 26.1299C155.474 27.026 157.057 28.2667 158.684 29.8521C160.298 31.3968 161.841 33.143 163.315 35.0908C164.776 36.9979 166.079 39.0448 167.226 41.2314C168.414 43.4051 169.345 45.5486 170.021 47.6619C170.696 49.7752 171.148 52.0274 171.374 54.4186C171.642 56.7967 171.693 59.1992 171.528 61.626C171.391 63.9991 171.079 66.3161 170.592 68.577C170.105 70.8379 169.452 72.928 168.632 74.8474C167.853 76.7539 166.922 78.3953 165.839 79.7717C164.769 81.1888 163.582 82.2401 162.278 82.9256C159.37 83.4969 156.924 83.271 154.939 82.2479C153.009 81.2525 151.628 79.4543 150.796 76.8533C150.354 75.4715 150.077 73.9029 149.964 72.1473C149.891 70.3788 149.947 68.5916 150.131 66.7857C150.343 64.9263 150.676 63.0953 151.13 61.2928C151.612 59.4366 152.186 57.7301 152.853 56.1731C153.561 54.6031 154.327 53.216 155.151 52.0118C155.976 50.8076 156.877 49.9147 157.856 49.3331ZM161.011 80.6431C162.278 79.7007 163.356 78.169 164.246 76.0481C165.135 73.9271 165.792 71.5672 166.215 68.9682C166.626 66.3285 166.767 63.6181 166.64 60.8369C166.54 58.002 166.107 55.3857 165.34 52.9879C165.119 52.297 164.983 51.8703 164.931 51.7077C164.879 51.5451 164.807 51.3891 164.714 51.2395C163.869 51.9577 163.053 52.9798 162.268 54.306C161.482 55.6321 160.749 57.1208 160.067 58.7721C159.372 60.3827 158.778 62.0957 158.283 63.9112C157.788 65.7267 157.395 67.5098 157.104 69.2603C156.812 71.0108 156.664 72.6484 156.658 74.1731C156.653 75.6978 156.819 76.9885 157.157 78.0452C157.807 80.0772 159.091 80.9432 161.011 80.6431ZM193.199 42.2687C193.605 42.1388 194.099 42.0707 194.679 42.0644C195.287 42.0045 195.853 42.025 196.378 42.1259C196.89 42.1862 197.328 42.2928 197.69 42.4457C198.093 42.5856 198.327 42.7572 198.392 42.9604C198.125 44.9271 197.925 46.8947 197.793 48.8631C197.647 50.7909 197.584 52.6252 197.603 54.3661C197.622 56.107 197.71 57.7138 197.868 59.1865C198.065 60.6462 198.327 61.8841 198.651 62.9001C199.015 64.0381 199.442 64.9542 199.933 65.6484C200.411 66.302 200.986 66.7004 201.659 66.8437C201.275 67.3247 200.73 67.7902 200.022 68.2402C199.315 68.6903 198.657 69.0127 198.047 69.2076C195.853 69.9091 194.275 68.7561 193.313 65.7487C192.573 63.4322 192.332 60.0154 192.59 55.4983C192.375 57.6276 192.005 59.6942 191.481 61.6983C190.944 63.6617 190.328 65.4487 189.634 67.0593C188.939 68.6699 188.153 70.0635 187.275 71.2401C186.424 72.363 185.557 73.1551 184.675 73.6165C183.145 74.0159 181.698 73.6944 180.335 72.652C178.959 71.569 177.933 69.9709 177.257 67.8575C176.53 65.5817 176.251 63.028 176.421 60.1964C176.591 57.3649 177.083 54.6319 177.898 51.9972C178.754 49.3496 179.849 47.0288 181.182 45.0347C182.503 43.0001 183.983 41.6758 185.624 41.0619C186.069 41.0539 186.594 41.1548 187.199 41.3647C187.844 41.5616 188.468 41.8324 189.071 42.1772C189.715 42.509 190.283 42.8871 190.777 43.3115C191.258 43.6953 191.578 44.0636 191.735 44.4163C190.188 45.1798 188.754 46.5114 187.435 48.4112C186.157 50.298 185.112 52.4238 184.3 54.7886C183.516 57.0997 183.021 59.4752 182.816 61.915C182.61 64.3547 182.806 66.5094 183.404 68.3788C183.65 69.151 184.091 69.5478 184.725 69.5691C185.825 68.9485 186.869 67.5176 187.854 65.2764C188.827 62.9946 189.82 59.6537 190.832 55.2539C191.005 54.3924 191.192 53.4367 191.394 52.3867C191.636 51.3238 191.866 50.2201 192.082 49.0759C192.299 47.9316 192.495 46.7938 192.671 45.6626C192.875 44.4777 193.051 43.3464 193.199 42.2687Z" fill="#250095"/>
</g>
<defs>
<filter id="filter0_d_2_168" x="43.2843" y="43.1434" width="289.777" height="159.856" filterUnits="userSpaceOnUse" color-interpolation-filters="sRGB">
<feFlood flood-opacity="0" result="BackgroundImageFix"/>
<feColorMatrix in="SourceAlpha" type="matrix" values="0 0 0 0 0 0 0 0 0 0 0 0 0 0 0 0 0 0 127 0" result="hardAlpha"/>
<feOffset dx="5" dy="4"/>
<feGaussianBlur stdDeviation="2.5"/>
<feComposite in2="hardAlpha" operator="out"/>
<feColorMatrix type="matrix" values="0 0 0 0 0.906731 0 0 0 0 0.749622 0 0 0 0 0.121188 0 0 0 0.25 0"/>
<feBlend mode="normal" in2="BackgroundImageFix" result="effect1_dropShadow_2_168"/>
<feBlend mode="normal" in="SourceGraphic" in2="effect1_dropShadow_2_168" result="shape"/>
</filter>
<filter id="filter1_d_2_168" x="13.4721" y="13.7963" width="203.63" height="121.646" filterUnits="userSpaceOnUse" color-interpolation-filters="sRGB">
<feFlood flood-opacity="0" result="BackgroundImageFix"/>
<feColorMatrix in="SourceAlpha" type="matrix" values="0 0 0 0 0 0 0 0 0 0 0 0 0 0 0 0 0 0 127 0" result="hardAlpha"/>
<feOffset dx="5" dy="4"/>
<feGaussianBlur stdDeviation="2.5"/>
<feComposite in2="hardAlpha" operator="out"/>
<feColorMatrix type="matrix" values="0 0 0 0 0.906731 0 0 0 0 0.749622 0 0 0 0 0.121188 0 0 0 0.25 0"/>
<feBlend mode="normal" in2="BackgroundImageFix" result="effect1_dropShadow_2_168"/>
<feBlend mode="normal" in="SourceGraphic" in2="effect1_dropShadow_2_168" result="shape"/>
</filter>
</defs>
</svg>
